<svg xmlns="http://www.w3.org/2000/svg" xmlns:xlink="http://www.w3.org/1999/xlink" width="500" zoomAndPan="magnify" viewBox="0 0 375 374.999991" height="500" preserveAspectRatio="xMidYMid meet" version="1.0"><defs><g/><clipPath id="b37efbfece"><path d="M 53 144.578125 L 111.820312 144.578125 L 111.820312 230.078125 L 53 230.078125 Z M 53 144.578125 " clip-rule="nonzero"/></clipPath><clipPath id="ed98e34834"><rect x="0" width="83" y="0" height="19"/></clipPath><clipPath id="c9a73b74f9"><path d="M 166.027344 184.363281 L 176.011719 184.363281 L 176.011719 202.164062 L 166.027344 202.164062 Z M 166.027344 184.363281 " clip-rule="nonzero"/></clipPath><clipPath id="7b0de51890"><path d="M 0.0273438 0.363281 L 10.011719 0.363281 L 10.011719 18.164062 L 0.0273438 18.164062 Z M 0.0273438 0.363281 " clip-rule="nonzero"/></clipPath><clipPath id="a920b305c0"><rect x="0" width="11" y="0" height="19"/></clipPath><clipPath id="979f22bce7"><path d="M 171.769531 184.363281 L 183.144531 184.363281 L 183.144531 200.671875 L 171.769531 200.671875 Z M 171.769531 184.363281 " clip-rule="nonzero"/></clipPath><clipPath id="91f62d87e2"><path d="M 175.992188 184.363281 L 183.144531 184.363281 L 178.921875 200.65625 L 171.769531 200.65625 Z M 175.992188 184.363281 " clip-rule="nonzero"/></clipPath><clipPath id="7af83dddbc"><path d="M 0.769531 0.363281 L 12.144531 0.363281 L 12.144531 16.671875 L 0.769531 16.671875 Z M 0.769531 0.363281 " clip-rule="nonzero"/></clipPath><clipPath id="149e1dd45e"><path d="M 4.992188 0.363281 L 12.144531 0.363281 L 7.921875 16.65625 L 0.769531 16.65625 Z M 4.992188 0.363281 " clip-rule="nonzero"/></clipPath><clipPath id="177e048efa"><rect x="0" width="13" y="0" height="17"/></clipPath><clipPath id="84881dfc22"><path d="M 207.9375 184.363281 L 217.925781 184.363281 L 217.925781 202.164062 L 207.9375 202.164062 Z M 207.9375 184.363281 " clip-rule="nonzero"/></clipPath><clipPath id="8cb7e50bdb"><path d="M 0.9375 0.363281 L 10.925781 0.363281 L 10.925781 18.164062 L 0.9375 18.164062 Z M 0.9375 0.363281 " clip-rule="nonzero"/></clipPath><clipPath id="957bbd129a"><rect x="0" width="11" y="0" height="19"/></clipPath><clipPath id="b93dc64c68"><path d="M 213.683594 184.363281 L 225.058594 184.363281 L 225.058594 200.671875 L 213.683594 200.671875 Z M 213.683594 184.363281 " clip-rule="nonzero"/></clipPath><clipPath id="8686a2cea5"><path d="M 217.90625 184.363281 L 225.058594 184.363281 L 220.835938 200.65625 L 213.683594 200.65625 Z M 217.90625 184.363281 " clip-rule="nonzero"/></clipPath><clipPath id="2d35e7824c"><path d="M 0.683594 0.363281 L 12.058594 0.363281 L 12.058594 16.671875 L 0.683594 16.671875 Z M 0.683594 0.363281 " clip-rule="nonzero"/></clipPath><clipPath id="f917bf7b58"><path d="M 4.90625 0.363281 L 12.058594 0.363281 L 7.835938 16.65625 L 0.683594 16.65625 Z M 4.90625 0.363281 " clip-rule="nonzero"/></clipPath><clipPath id="62f004876b"><rect x="0" width="13" y="0" height="17"/></clipPath></defs><rect x="-37.5" width="450" fill="#ffffff" y="-37.499999" height="449.999989" fill-opacity="1"/><rect x="-37.5" width="450" fill="#191919" y="-37.499999" height="449.999989" fill-opacity="1"/><g fill="#ffffff" fill-opacity="1"><g transform="translate(150.931006, 311.972732)"><g><path d="M 3.578125 -8.484375 C 4.503906 -8.484375 5.304688 -8.3125 5.984375 -7.96875 C 6.660156 -7.625 7.175781 -7.128906 7.53125 -6.484375 C 7.894531 -5.847656 8.078125 -5.09375 8.078125 -4.21875 C 8.078125 -3.351562 7.894531 -2.601562 7.53125 -1.96875 C 7.175781 -1.332031 6.660156 -0.84375 5.984375 -0.5 C 5.304688 -0.164062 4.503906 0 3.578125 0 L 0.9375 0 L 0.9375 -8.484375 Z M 3.578125 -0.90625 C 4.671875 -0.90625 5.503906 -1.195312 6.078125 -1.78125 C 6.660156 -2.363281 6.953125 -3.175781 6.953125 -4.21875 C 6.953125 -5.28125 6.660156 -6.101562 6.078125 -6.6875 C 5.492188 -7.28125 4.660156 -7.578125 3.578125 -7.578125 L 2.046875 -7.578125 L 2.046875 -0.90625 Z M 3.578125 -0.90625 "/></g></g></g><g fill="#ffffff" fill-opacity="1"><g transform="translate(162.53821, 311.972732)"><g><path d="M 4.78125 0.078125 C 4 0.078125 3.28125 -0.101562 2.625 -0.46875 C 1.976562 -0.832031 1.460938 -1.34375 1.078125 -2 C 0.703125 -2.664062 0.515625 -3.414062 0.515625 -4.25 C 0.515625 -5.070312 0.703125 -5.8125 1.078125 -6.46875 C 1.460938 -7.132812 1.976562 -7.648438 2.625 -8.015625 C 3.28125 -8.390625 4 -8.578125 4.78125 -8.578125 C 5.570312 -8.578125 6.289062 -8.390625 6.9375 -8.015625 C 7.59375 -7.648438 8.109375 -7.140625 8.484375 -6.484375 C 8.859375 -5.828125 9.046875 -5.082031 9.046875 -4.25 C 9.046875 -3.414062 8.859375 -2.664062 8.484375 -2 C 8.109375 -1.34375 7.59375 -0.832031 6.9375 -0.46875 C 6.289062 -0.101562 5.570312 0.078125 4.78125 0.078125 Z M 4.78125 -0.875 C 5.375 -0.875 5.90625 -1.007812 6.375 -1.28125 C 6.851562 -1.5625 7.226562 -1.957031 7.5 -2.46875 C 7.769531 -2.976562 7.90625 -3.570312 7.90625 -4.25 C 7.90625 -4.925781 7.769531 -5.519531 7.5 -6.03125 C 7.226562 -6.539062 6.859375 -6.929688 6.390625 -7.203125 C 5.921875 -7.484375 5.382812 -7.625 4.78125 -7.625 C 4.1875 -7.625 3.648438 -7.484375 3.171875 -7.203125 C 2.703125 -6.929688 2.332031 -6.539062 2.0625 -6.03125 C 1.789062 -5.519531 1.65625 -4.925781 1.65625 -4.25 C 1.65625 -3.570312 1.789062 -2.976562 2.0625 -2.46875 C 2.332031 -1.957031 2.703125 -1.5625 3.171875 -1.28125 C 3.648438 -1.007812 4.1875 -0.875 4.78125 -0.875 Z M 4.78125 -0.875 "/></g></g></g><g fill="#ffffff" fill-opacity="1"><g transform="translate(175.106362, 311.972732)"><g/></g></g><g fill="#ffffff" fill-opacity="1"><g transform="translate(181.361405, 311.972732)"><g><path d="M 9.546875 -8.421875 L 9.546875 0 L 8.4375 0 L 8.4375 -6.28125 L 5.640625 0 L 4.859375 0 L 2.046875 -6.296875 L 2.046875 0 L 0.9375 0 L 0.9375 -8.421875 L 2.125 -8.421875 L 5.25 -1.453125 L 8.359375 -8.421875 Z M 9.546875 -8.421875 "/></g></g></g><g fill="#ffffff" fill-opacity="1"><g transform="translate(194.841857, 311.972732)"><g><path d="M 4.78125 0.078125 C 4 0.078125 3.28125 -0.101562 2.625 -0.46875 C 1.976562 -0.832031 1.460938 -1.34375 1.078125 -2 C 0.703125 -2.664062 0.515625 -3.414062 0.515625 -4.25 C 0.515625 -5.070312 0.703125 -5.8125 1.078125 -6.46875 C 1.460938 -7.132812 1.976562 -7.648438 2.625 -8.015625 C 3.28125 -8.390625 4 -8.578125 4.78125 -8.578125 C 5.570312 -8.578125 6.289062 -8.390625 6.9375 -8.015625 C 7.59375 -7.648438 8.109375 -7.140625 8.484375 -6.484375 C 8.859375 -5.828125 9.046875 -5.082031 9.046875 -4.25 C 9.046875 -3.414062 8.859375 -2.664062 8.484375 -2 C 8.109375 -1.34375 7.59375 -0.832031 6.9375 -0.46875 C 6.289062 -0.101562 5.570312 0.078125 4.78125 0.078125 Z M 4.78125 -0.875 C 5.375 -0.875 5.90625 -1.007812 6.375 -1.28125 C 6.851562 -1.5625 7.226562 -1.957031 7.5 -2.46875 C 7.769531 -2.976562 7.90625 -3.570312 7.90625 -4.25 C 7.90625 -4.925781 7.769531 -5.519531 7.5 -6.03125 C 7.226562 -6.539062 6.859375 -6.929688 6.390625 -7.203125 C 5.921875 -7.484375 5.382812 -7.625 4.78125 -7.625 C 4.1875 -7.625 3.648438 -7.484375 3.171875 -7.203125 C 2.703125 -6.929688 2.332031 -6.539062 2.0625 -6.03125 C 1.789062 -5.519531 1.65625 -4.925781 1.65625 -4.25 C 1.65625 -3.570312 1.789062 -2.976562 2.0625 -2.46875 C 2.332031 -1.957031 2.703125 -1.5625 3.171875 -1.28125 C 3.648438 -1.007812 4.1875 -0.875 4.78125 -0.875 Z M 4.78125 -0.875 "/></g></g></g><g fill="#ffffff" fill-opacity="1"><g transform="translate(207.41001, 311.972732)"><g><path d="M 5.40625 0 L 3.390625 -3.46875 L 2.046875 -3.46875 L 2.046875 0 L 0.9375 0 L 0.9375 -8.484375 L 3.671875 -8.484375 C 4.316406 -8.484375 4.859375 -8.375 5.296875 -8.15625 C 5.742188 -7.9375 6.078125 -7.640625 6.296875 -7.265625 C 6.515625 -6.890625 6.625 -6.460938 6.625 -5.984375 C 6.625 -5.398438 6.453125 -4.882812 6.109375 -4.4375 C 5.773438 -3.988281 5.269531 -3.691406 4.59375 -3.546875 L 6.734375 0 Z M 2.046875 -4.359375 L 3.671875 -4.359375 C 4.273438 -4.359375 4.726562 -4.503906 5.03125 -4.796875 C 5.332031 -5.097656 5.484375 -5.492188 5.484375 -5.984375 C 5.484375 -6.492188 5.332031 -6.882812 5.03125 -7.15625 C 4.738281 -7.4375 4.285156 -7.578125 3.671875 -7.578125 L 2.046875 -7.578125 Z M 2.046875 -4.359375 "/></g></g></g><g fill="#ffffff" fill-opacity="1"><g transform="translate(217.812975, 311.972732)"><g><path d="M 2.046875 -7.578125 L 2.046875 -4.75 L 5.140625 -4.75 L 5.140625 -3.828125 L 2.046875 -3.828125 L 2.046875 -0.90625 L 5.5 -0.90625 L 5.5 0 L 0.9375 0 L 0.9375 -8.5 L 5.5 -8.5 L 5.5 -7.578125 Z M 2.046875 -7.578125 "/></g></g></g><path stroke-linecap="round" transform="matrix(0, 0.75, -0.75, 0, 126.178311, 142.277335)" fill="none" stroke-linejoin="miter" d="M 0.500011 0.498165 L 120.104186 0.498165 " stroke="#ffffff" stroke-width="1" stroke-opacity="1" stroke-miterlimit="4"/><g clip-path="url(#b37efbfece)"><path fill="#ff66c4" d="M 60.65625 200.191406 L 57.726562 196.464844 C 50.324219 187.046875 53.480469 173.199219 64.234375 167.917969 L 111.65625 144.621094 L 111.65625 154.210938 C 111.65625 161.542969 107.46875 168.238281 100.871094 171.453125 L 69.347656 186.816406 C 67.050781 187.933594 65.042969 189.570312 63.523438 191.625 C 62 193.6875 60.691406 196.515625 60.792969 200.082031 C 61.832031 199.257812 62.980469 198.527344 64.230469 197.914062 L 111.65625 174.617188 L 111.65625 184.207031 C 111.65625 191.539062 107.464844 198.234375 100.871094 201.449219 L 69.347656 216.808594 C 67.050781 217.925781 65.042969 219.566406 63.523438 221.617188 C 61.957031 223.738281 60.617188 226.664062 60.804688 230.371094 L 57.726562 226.460938 C 51.222656 218.183594 52.867188 206.488281 60.65625 200.191406 Z M 91.460938 219.867188 L 111.640625 230.382812 L 111.632812 204.117188 L 91.5 214.25 C 89.203125 215.410156 89.183594 218.679688 91.460938 219.867188 Z M 91.460938 219.867188 " fill-opacity="1" fill-rule="nonzero"/></g><g fill="#ffffff" fill-opacity="1"><g transform="translate(135.959381, 201.238844)"><g><path d="M 26.375 -8 L 29.71875 -4.734375 C 28.226562 -3.242188 26.472656 -2.082031 24.453125 -1.25 C 22.441406 -0.414062 20.367188 0 18.234375 0 C 15.265625 0 12.550781 -0.71875 10.09375 -2.15625 C 7.632812 -3.59375 5.6875 -5.539062 4.25 -8 C 2.8125 -10.457031 2.09375 -13.171875 2.09375 -16.140625 C 2.09375 -19.109375 2.8125 -21.820312 4.25 -24.28125 C 5.6875 -26.75 7.632812 -28.710938 10.09375 -30.171875 C 12.550781 -31.628906 15.265625 -32.359375 18.234375 -32.359375 C 20.367188 -32.359375 22.441406 -31.941406 24.453125 -31.109375 C 26.472656 -30.273438 28.226562 -29.113281 29.71875 -27.625 L 26.375 -24.28125 C 24.101562 -26.5625 21.390625 -27.703125 18.234375 -27.703125 C 16.097656 -27.703125 14.160156 -27.175781 12.421875 -26.125 C 10.679688 -25.082031 9.300781 -23.691406 8.28125 -21.953125 C 7.257812 -20.210938 6.75 -18.273438 6.75 -16.140625 C 6.75 -14.054688 7.257812 -12.144531 8.28125 -10.40625 C 9.300781 -8.664062 10.679688 -7.269531 12.421875 -6.21875 C 14.160156 -5.175781 16.097656 -4.65625 18.234375 -4.65625 C 19.710938 -4.65625 21.171875 -4.945312 22.609375 -5.53125 C 24.054688 -6.113281 25.3125 -6.9375 26.375 -8 Z M 26.375 -8 "/></g></g></g><g fill="#ffffff" fill-opacity="1"><g transform="translate(167.765486, 201.238844)"><g><path d="M 4.390625 -36.53125 C 3.734375 -36.53125 3.1875 -36.757812 2.75 -37.21875 C 2.3125 -37.6875 2.09375 -38.25 2.09375 -38.90625 C 2.09375 -39.550781 2.3125 -40.09375 2.75 -40.53125 C 3.1875 -40.976562 3.734375 -41.203125 4.390625 -41.203125 C 5.035156 -41.203125 5.585938 -40.976562 6.046875 -40.53125 C 6.515625 -40.09375 6.75 -39.550781 6.75 -38.90625 C 6.75 -38.25 6.515625 -37.6875 6.046875 -37.21875 C 5.585938 -36.757812 5.035156 -36.53125 4.390625 -36.53125 Z M 6.8125 -32.359375 L 6.8125 0 L 2.09375 0 L 2.09375 -32.359375 Z M 6.8125 -32.359375 "/></g></g></g><g fill="#ffffff" fill-opacity="1"><g transform="translate(176.673978, 201.238844)"><g><path d="M 18.71875 0 L 13.984375 0 L 2.09375 -32.359375 L 6.8125 -32.359375 L 16.359375 -6.46875 L 25.890625 -32.359375 L 30.625 -32.359375 Z M 18.71875 0 "/></g></g></g><g fill="#ffffff" fill-opacity="1"><g transform="translate(209.384852, 201.238844)"><g><path d="M 4.390625 -36.53125 C 3.734375 -36.53125 3.1875 -36.757812 2.75 -37.21875 C 2.3125 -37.6875 2.09375 -38.25 2.09375 -38.90625 C 2.09375 -39.550781 2.3125 -40.09375 2.75 -40.53125 C 3.1875 -40.976562 3.734375 -41.203125 4.390625 -41.203125 C 5.035156 -41.203125 5.585938 -40.976562 6.046875 -40.53125 C 6.515625 -40.09375 6.75 -39.550781 6.75 -38.90625 C 6.75 -38.25 6.515625 -37.6875 6.046875 -37.21875 C 5.585938 -36.757812 5.035156 -36.53125 4.390625 -36.53125 Z M 6.8125 -32.359375 L 6.8125 0 L 2.09375 0 L 2.09375 -32.359375 Z M 6.8125 -32.359375 "/></g></g></g><g fill="#ffffff" fill-opacity="1"><g transform="translate(218.293345, 201.238844)"><g><path d="M 14.34375 -29.296875 L 14.34375 -16.140625 C 14.34375 -14.054688 14.847656 -12.15625 15.859375 -10.4375 C 16.878906 -8.71875 18.257812 -7.347656 20 -6.328125 C 21.75 -5.304688 23.6875 -4.75 25.8125 -4.65625 L 25.8125 0 C 22.84375 0 20.128906 -0.71875 17.671875 -2.15625 C 15.210938 -3.59375 13.265625 -5.539062 11.828125 -8 C 10.390625 -10.457031 9.671875 -13.171875 9.671875 -16.140625 L 9.671875 -29.296875 L 2.09375 -29.296875 L 2.09375 -33.890625 L 9.671875 -33.890625 L 9.671875 -46.96875 L 14.34375 -46.96875 L 14.34375 -33.890625 L 25.8125 -33.890625 L 25.8125 -29.296875 Z M 14.34375 -29.296875 "/></g></g></g><g fill="#ffffff" fill-opacity="1"><g transform="translate(246.201981, 201.238844)"><g><path d="M 29.78125 -32.359375 L 34.453125 -32.359375 L 34.453125 0 L 29.78125 0 L 29.78125 -5.703125 C 28.4375 -3.941406 26.753906 -2.550781 24.734375 -1.53125 C 22.722656 -0.507812 20.554688 0 18.234375 0 C 15.265625 0 12.550781 -0.71875 10.09375 -2.15625 C 7.632812 -3.59375 5.6875 -5.539062 4.25 -8 C 2.8125 -10.457031 2.09375 -13.171875 2.09375 -16.140625 C 2.09375 -19.109375 2.8125 -21.820312 4.25 -24.28125 C 5.6875 -26.75 7.632812 -28.710938 10.09375 -30.171875 C 12.550781 -31.628906 15.265625 -32.359375 18.234375 -32.359375 C 20.554688 -32.359375 22.722656 -31.847656 24.734375 -30.828125 C 26.753906 -29.804688 28.4375 -28.414062 29.78125 -26.65625 Z M 18.234375 -4.65625 C 20.367188 -4.65625 22.304688 -5.175781 24.046875 -6.21875 C 25.785156 -7.269531 27.175781 -8.664062 28.21875 -10.40625 C 29.257812 -12.144531 29.78125 -14.054688 29.78125 -16.140625 C 29.78125 -18.273438 29.257812 -20.210938 28.21875 -21.953125 C 27.175781 -23.691406 25.785156 -25.082031 24.046875 -26.125 C 22.304688 -27.175781 20.367188 -27.703125 18.234375 -27.703125 C 16.148438 -27.703125 14.234375 -27.175781 12.484375 -26.125 C 10.742188 -25.082031 9.351562 -23.691406 8.3125 -21.953125 C 7.269531 -20.210938 6.75 -18.273438 6.75 -16.140625 C 6.75 -14.054688 7.269531 -12.144531 8.3125 -10.40625 C 9.351562 -8.664062 10.742188 -7.269531 12.484375 -6.21875 C 14.234375 -5.175781 16.148438 -4.65625 18.234375 -4.65625 Z M 18.234375 -4.65625 "/></g></g></g><g fill="#ffffff" fill-opacity="1"><g transform="translate(282.740721, 201.238844)"><g><path d="M 15.03125 -18.515625 C 16.28125 -18.421875 17.625 -18.164062 19.0625 -17.75 C 20.5 -17.332031 21.84375 -16.738281 23.09375 -15.96875 C 24.351562 -15.207031 25.390625 -14.242188 26.203125 -13.078125 C 27.015625 -11.921875 27.421875 -10.554688 27.421875 -8.984375 C 27.421875 -7.453125 27.023438 -6.128906 26.234375 -5.015625 C 25.441406 -3.898438 24.40625 -2.96875 23.125 -2.21875 C 21.851562 -1.476562 20.5 -0.929688 19.0625 -0.578125 C 17.625 -0.234375 16.234375 -0.0625 14.890625 -0.0625 C 12.484375 -0.0625 10.140625 -0.550781 7.859375 -1.53125 C 5.585938 -2.507812 3.6875 -3.972656 2.15625 -5.921875 L 5.921875 -8.765625 C 6.941406 -7.378906 8.304688 -6.359375 10.015625 -5.703125 C 11.734375 -5.054688 13.472656 -4.734375 15.234375 -4.734375 C 16.078125 -4.734375 17.085938 -4.867188 18.265625 -5.140625 C 19.453125 -5.421875 20.492188 -5.875 21.390625 -6.5 C 22.296875 -7.132812 22.75 -8.003906 22.75 -9.109375 C 22.75 -10.222656 22.25 -11.140625 21.25 -11.859375 C 20.257812 -12.578125 19.113281 -13.097656 17.8125 -13.421875 C 16.519531 -13.753906 15.40625 -13.921875 14.46875 -13.921875 C 13.21875 -14.015625 11.875 -14.269531 10.4375 -14.6875 C 9 -15.101562 7.65625 -15.691406 6.40625 -16.453125 C 5.15625 -17.222656 4.125 -18.1875 3.3125 -19.34375 C 2.5 -20.507812 2.09375 -21.878906 2.09375 -23.453125 C 2.09375 -24.984375 2.484375 -26.304688 3.265625 -27.421875 C 4.054688 -28.535156 5.085938 -29.460938 6.359375 -30.203125 C 7.640625 -30.941406 9.007812 -31.484375 10.46875 -31.828125 C 11.9375 -32.179688 13.316406 -32.359375 14.609375 -32.359375 C 17.023438 -32.359375 19.359375 -31.867188 21.609375 -30.890625 C 23.859375 -29.921875 25.769531 -28.460938 27.34375 -26.515625 L 23.59375 -23.59375 C 22.570312 -25.03125 21.203125 -26.070312 19.484375 -26.71875 C 17.765625 -27.375 16.023438 -27.703125 14.265625 -27.703125 C 13.472656 -27.703125 12.472656 -27.570312 11.265625 -27.3125 C 10.066406 -27.0625 9.015625 -26.609375 8.109375 -25.953125 C 7.203125 -25.304688 6.75 -24.425781 6.75 -23.3125 C 6.75 -22.195312 7.25 -21.289062 8.25 -20.59375 C 9.25 -19.90625 10.394531 -19.382812 11.6875 -19.03125 C 12.988281 -18.6875 14.101562 -18.515625 15.03125 -18.515625 Z M 15.03125 -18.515625 "/></g></g></g><g transform="matrix(1, 0, 0, 1, 139, 209)"><g clip-path="url(#ed98e34834)"><g fill="#ff66c4" fill-opacity="1"><g transform="translate(0.580796, 13.733324)"><g><path d="M 6.578125 -5.984375 C 6.578125 -5.273438 6.335938 -4.6875 5.859375 -4.21875 C 5.378906 -3.757812 4.644531 -3.53125 3.65625 -3.53125 L 2.03125 -3.53125 L 2.03125 0 L 0.9375 0 L 0.9375 -8.453125 L 3.65625 -8.453125 C 4.613281 -8.453125 5.335938 -8.21875 5.828125 -7.75 C 6.328125 -7.289062 6.578125 -6.703125 6.578125 -5.984375 Z M 3.65625 -4.4375 C 4.269531 -4.4375 4.722656 -4.566406 5.015625 -4.828125 C 5.304688 -5.097656 5.453125 -5.484375 5.453125 -5.984375 C 5.453125 -7.023438 4.851562 -7.546875 3.65625 -7.546875 L 2.03125 -7.546875 L 2.03125 -4.4375 Z M 3.65625 -4.4375 "/></g></g></g><g fill="#ff66c4" fill-opacity="1"><g transform="translate(10.238698, 13.733324)"><g><path d="M 2.03125 -0.890625 L 5 -0.890625 L 5 0 L 0.9375 0 L 0.9375 -8.453125 L 2.03125 -8.453125 Z M 2.03125 -0.890625 "/></g></g></g><g fill="#ff66c4" fill-opacity="1"><g transform="translate(18.115342, 13.733324)"><g><path d="M 5.921875 -1.875 L 2.25 -1.875 L 1.5625 0 L 0.40625 0 L 3.453125 -8.40625 L 4.734375 -8.40625 L 7.765625 0 L 6.609375 0 Z M 5.609375 -2.78125 L 4.09375 -7.046875 L 2.5625 -2.78125 Z M 5.609375 -2.78125 "/></g></g></g><g fill="#ff66c4" fill-opacity="1"><g transform="translate(28.92439, 13.733324)"><g><path d="M 6.140625 -8.453125 L 6.140625 -7.546875 L 3.828125 -7.546875 L 3.828125 0 L 2.734375 0 L 2.734375 -7.546875 L 0.40625 -7.546875 L 0.40625 -8.453125 Z M 6.140625 -8.453125 "/></g></g></g><g fill="#ff66c4" fill-opacity="1"><g transform="translate(38.121831, 13.733324)"><g><path d="M 5.703125 -8.453125 L 5.703125 -7.546875 L 2.03125 -7.546875 L 2.03125 -4.703125 L 5.015625 -4.703125 L 5.015625 -3.8125 L 2.03125 -3.8125 L 2.03125 0 L 0.9375 0 L 0.9375 -8.453125 Z M 5.703125 -8.453125 "/></g></g></g><g fill="#ff66c4" fill-opacity="1"><g transform="translate(46.870926, 13.733324)"><g><path d="M 4.765625 0.078125 C 3.984375 0.078125 3.269531 -0.101562 2.625 -0.46875 C 1.976562 -0.832031 1.460938 -1.34375 1.078125 -2 C 0.703125 -2.664062 0.515625 -3.410156 0.515625 -4.234375 C 0.515625 -5.054688 0.703125 -5.796875 1.078125 -6.453125 C 1.460938 -7.109375 1.976562 -7.617188 2.625 -7.984375 C 3.269531 -8.359375 3.984375 -8.546875 4.765625 -8.546875 C 5.554688 -8.546875 6.273438 -8.359375 6.921875 -7.984375 C 7.566406 -7.617188 8.078125 -7.109375 8.453125 -6.453125 C 8.828125 -5.804688 9.015625 -5.066406 9.015625 -4.234375 C 9.015625 -3.398438 8.828125 -2.65625 8.453125 -2 C 8.078125 -1.34375 7.566406 -0.832031 6.921875 -0.46875 C 6.273438 -0.101562 5.554688 0.078125 4.765625 0.078125 Z M 4.765625 -0.875 C 5.359375 -0.875 5.890625 -1.007812 6.359375 -1.28125 C 6.828125 -1.5625 7.195312 -1.953125 7.46875 -2.453125 C 7.738281 -2.960938 7.875 -3.554688 7.875 -4.234375 C 7.875 -4.910156 7.738281 -5.5 7.46875 -6 C 7.195312 -6.507812 6.828125 -6.898438 6.359375 -7.171875 C 5.890625 -7.453125 5.359375 -7.59375 4.765625 -7.59375 C 4.171875 -7.59375 3.640625 -7.453125 3.171875 -7.171875 C 2.703125 -6.898438 2.332031 -6.507812 2.0625 -6 C 1.789062 -5.5 1.65625 -4.910156 1.65625 -4.234375 C 1.65625 -3.554688 1.789062 -2.960938 2.0625 -2.453125 C 2.332031 -1.953125 2.703125 -1.5625 3.171875 -1.28125 C 3.640625 -1.007812 4.171875 -0.875 4.765625 -0.875 Z M 4.765625 -0.875 "/></g></g></g><g fill="#ff66c4" fill-opacity="1"><g transform="translate(59.037115, 13.733324)"><g><path d="M 5.390625 0 L 3.375 -3.453125 L 2.03125 -3.453125 L 2.03125 0 L 0.9375 0 L 0.9375 -8.453125 L 3.65625 -8.453125 C 4.300781 -8.453125 4.84375 -8.34375 5.28125 -8.125 C 5.71875 -7.90625 6.046875 -7.609375 6.265625 -7.234375 C 6.484375 -6.867188 6.59375 -6.445312 6.59375 -5.96875 C 6.59375 -5.382812 6.425781 -4.867188 6.09375 -4.421875 C 5.757812 -3.984375 5.253906 -3.691406 4.578125 -3.546875 L 6.703125 0 Z M 2.03125 -4.34375 L 3.65625 -4.34375 C 4.257812 -4.34375 4.707031 -4.488281 5 -4.78125 C 5.300781 -5.070312 5.453125 -5.46875 5.453125 -5.96875 C 5.453125 -6.46875 5.304688 -6.851562 5.015625 -7.125 C 4.722656 -7.40625 4.269531 -7.546875 3.65625 -7.546875 L 2.03125 -7.546875 Z M 2.03125 -4.34375 "/></g></g></g><g fill="#ff66c4" fill-opacity="1"><g transform="translate(69.046422, 13.733324)"><g><path d="M 9.5 -8.390625 L 9.5 0 L 8.40625 0 L 8.40625 -6.25 L 5.609375 0 L 4.84375 0 L 2.03125 -6.265625 L 2.03125 0 L 0.9375 0 L 0.9375 -8.390625 L 2.125 -8.390625 L 5.21875 -1.453125 L 8.328125 -8.390625 Z M 9.5 -8.390625 "/></g></g></g></g></g><g clip-path="url(#c9a73b74f9)"><g transform="matrix(1, 0, 0, 1, 166, 184)"><g clip-path="url(#a920b305c0)"><g clip-path="url(#7b0de51890)"><path fill="#1e1c1c" d="M 0.0273438 0.363281 L 10.011719 0.363281 L 10.011719 18.148438 L 0.0273438 18.148438 Z M 0.0273438 0.363281 " fill-opacity="1" fill-rule="nonzero"/></g></g></g></g><g clip-path="url(#979f22bce7)"><g clip-path="url(#91f62d87e2)"><g transform="matrix(1, 0, 0, 1, 171, 184)"><g clip-path="url(#177e048efa)"><g clip-path="url(#7af83dddbc)"><g clip-path="url(#149e1dd45e)"><path fill="#ff66c4" d="M 0.769531 0.363281 L 12.144531 0.363281 L 12.144531 16.671875 L 0.769531 16.671875 Z M 0.769531 0.363281 " fill-opacity="1" fill-rule="nonzero"/></g></g></g></g></g></g><g clip-path="url(#84881dfc22)"><g transform="matrix(1, 0, 0, 1, 207, 184)"><g clip-path="url(#957bbd129a)"><g clip-path="url(#8cb7e50bdb)"><path fill="#1e1c1c" d="M 0.9375 0.363281 L 10.925781 0.363281 L 10.925781 18.148438 L 0.9375 18.148438 Z M 0.9375 0.363281 " fill-opacity="1" fill-rule="nonzero"/></g></g></g></g><g clip-path="url(#b93dc64c68)"><g clip-path="url(#8686a2cea5)"><g transform="matrix(1, 0, 0, 1, 213, 184)"><g clip-path="url(#62f004876b)"><g clip-path="url(#2d35e7824c)"><g clip-path="url(#f917bf7b58)"><path fill="#ff66c4" d="M 0.683594 0.363281 L 12.058594 0.363281 L 12.058594 16.671875 L 0.683594 16.671875 Z M 0.683594 0.363281 " fill-opacity="1" fill-rule="nonzero"/></g></g></g></g></g></g></svg>